<?xml version="1.0" encoding="utf-8"?>
<!-- Generator: Adobe Illustrator 27.5.0, SVG Export Plug-In . SVG Version: 6.00 Build 0)  -->
<svg version="1.1" xmlns="http://www.w3.org/2000/svg" xmlns:xlink="http://www.w3.org/1999/xlink" x="0px" y="0px"
	 viewBox="0 0 500 500" style="enable-background:new 0 0 500 500;" xml:space="preserve">
<g id="BACKGROUND">
</g>
<g id="OBJECTS">
	<g>
		<g>
			<linearGradient id="SVGID_1_" gradientUnits="userSpaceOnUse" x1="248.9921" y1="250.6544" x2="270.1149" y2="94.0851">
				<stop  offset="0" style="stop-color:#2BA66D"/>
				<stop  offset="0.1931" style="stop-color:#6BDF94"/>
				<stop  offset="0.8218" style="stop-color:#AEF484"/>
			</linearGradient>
			<path style="fill:url(#SVGID_1_);" d="M300.09,144.666c-2.347-23.824-12.929-46.721-31.452-68.056
				c-0.412-0.476-1.01-0.756-1.64-0.768c-0.552-0.01-1.085,0.184-1.502,0.545c-0.449,0.39-0.719,0.931-0.761,1.524
				c-0.043,0.594,0.149,1.168,0.539,1.617c32.487,37.42,39.469,78.369,20.751,121.707c-10.644,24.644-27.007,43.08-34.408,50.654
				c-1.553-13.545-4.088-49.699,7.615-83.139c14.868-42.484,16.379-52.627,11.555-77.523c-0.202-1.045-1.122-1.804-2.188-1.804
				c-0.139,0-0.28,0.014-0.422,0.041c-1.205,0.233-1.995,1.404-1.762,2.61c4.448,22.962,3.982,31.287-11.387,75.204
				c-11.094,31.699-9.747,65.587-8.213,81.558c-10.568-14.702-31.276-49.719-20.206-86.051
				c5.391-17.693,13.163-27.497,20.021-36.146c8.916-11.247,16.616-20.96,15.565-43.008c-0.058-1.203-1.084-2.154-2.33-2.119
				c-0.595,0.028-1.142,0.286-1.542,0.727c-0.4,0.44-0.604,1.01-0.577,1.604c0.971,20.379-5.903,29.05-14.608,40.029
				c-7.102,8.959-15.153,19.114-20.789,37.613c-7.963,26.134-0.231,51.296,7.658,67.804c6.271,13.122,13.634,22.998,17.119,27.338
				c-0.246,0.735-0.112,1.576,0.44,2.194c0.311,0.347,0.722,0.585,1.17,0.687c0.389,0.326,0.889,0.519,1.43,0.519
				c0.129,0,0.258-0.011,0.383-0.033c0.234-0.041,0.451-0.126,0.656-0.233c0.403-0.073,0.783-0.252,1.094-0.529
				c0.675-0.606,0.891-1.533,0.629-2.345c6.391-6.278,25.204-26.189,37.153-53.809C298.601,183.384,301.969,163.731,300.09,144.666z
				"/>
			<g>
				
					<linearGradient id="SVGID_00000054958839014490985280000003523944991115282852_" gradientUnits="userSpaceOnUse" x1="85.9031" y1="241.8795" x2="251.3829" y2="241.8795">
					<stop  offset="0.1782" style="stop-color:#AEF484"/>
					<stop  offset="0.8069" style="stop-color:#6BDF94"/>
					<stop  offset="1" style="stop-color:#2BA66D"/>
				</linearGradient>
				<path style="fill:url(#SVGID_00000054958839014490985280000003523944991115282852_);" d="M251.219,259.715
					c-0.123-0.309-12.8-31.009-51.353-37.831c-3.802-0.674-7.748-1.001-12.062-1.001c-12.353,0-25.152,2.764-37.542,5.44
					c-11.968,2.586-23.273,5.029-33.74,5.029c-11.268,0-19.784-2.84-26.801-8.939c-0.42-0.365-0.957-0.566-1.512-0.566
					c-0.667,0-1.301,0.289-1.741,0.794c-0.403,0.465-0.602,1.059-0.559,1.673c0.043,0.614,0.323,1.175,0.788,1.579
					c7.924,6.887,17.37,10.094,29.729,10.094c10.937-0.001,22.531-2.505,34.812-5.156c12.136-2.623,24.684-5.334,36.583-5.334
					c4.039,0,7.716,0.303,11.242,0.926c35.861,6.347,47.759,34.719,47.874,35.003c0.353,0.88,1.193,1.449,2.141,1.449
					c0.291,0,0.577-0.055,0.856-0.165C251.113,262.239,251.689,260.895,251.219,259.715z"/>
				
					<linearGradient id="SVGID_00000037667884236456573150000010848277343602910134_" gradientUnits="userSpaceOnUse" x1="250.7278" y1="241.88" x2="416.2099" y2="241.88">
					<stop  offset="0" style="stop-color:#2BA66D"/>
					<stop  offset="0.1931" style="stop-color:#6BDF94"/>
					<stop  offset="0.8218" style="stop-color:#AEF484"/>
				</linearGradient>
				<path style="fill:url(#SVGID_00000037667884236456573150000010848277343602910134_);" d="M415.644,222.642
					c-0.438-0.504-1.073-0.794-1.741-0.794c-0.556,0-1.093,0.201-1.512,0.566c-7.016,6.098-15.532,8.939-26.798,8.939
					c-10.462,0-21.768-2.443-33.742-5.029c-12.378-2.674-25.178-5.439-37.547-5.439c-4.312,0-8.256,0.326-12.057,0.999
					c-38.553,6.823-51.231,37.523-51.354,37.833c-0.228,0.571-0.22,1.198,0.023,1.763c0.243,0.567,0.693,1.003,1.263,1.23
					c0.275,0.111,0.563,0.167,0.856,0.167c0.948,0,1.79-0.569,2.141-1.448c0.116-0.285,11.995-28.653,47.876-35.004
					c3.525-0.623,7.203-0.927,11.242-0.927c11.891,0,24.444,2.712,36.604,5.339c12.268,2.649,23.858,5.152,34.791,5.152
					c12.189-0.001,21.914-3.303,29.729-10.094c0.465-0.404,0.744-0.965,0.787-1.579
					C416.247,223.701,416.048,223.106,415.644,222.642z"/>
			</g>
			
				<linearGradient id="SVGID_00000164478009765740085900000005887082531428724912_" gradientUnits="userSpaceOnUse" x1="76.1014" y1="255.2148" x2="250.167" y2="255.2148">
				<stop  offset="0.1782" style="stop-color:#AEF484"/>
				<stop  offset="0.8069" style="stop-color:#6BDF94"/>
				<stop  offset="1" style="stop-color:#2BA66D"/>
			</linearGradient>
			<path style="fill:url(#SVGID_00000164478009765740085900000005887082531428724912_);" d="M76.101,277.115
				c0,0,3.007-14.366,3.341-29.067c0,0,32.742,3.675,61.14-5.346c28.398-9.021,76.175-22.385,109.585,19.712l-14.032,14.7H76.101z"
				/>
			<g>
				<path style="fill:#FFFFFF;" d="M98.152,262.749c5.573-0.283,11.113-0.629,16.637-1.132c5.523-0.462,11.028-1.044,16.506-1.749
					c5.468-0.775,10.939-1.475,16.338-2.557c2.705-0.5,5.397-1.057,8.081-1.641l8.116-1.857c2.75-0.658,5.552-1.079,8.338-1.568
					c2.813-0.333,5.614-0.753,8.449-0.887c5.651-0.336,11.344-0.4,16.981,0.274c5.636,0.605,11.212,1.79,16.572,3.585
					c5.333,1.852,10.473,4.342,14.951,7.686c-10-4.991-20.924-7.133-31.803-7.683c-5.451-0.229-10.915-0.084-16.339,0.49
					c-2.717,0.225-5.415,0.655-8.115,1.036c-2.685,0.497-5.383,0.916-8.04,1.568l-8.157,1.802c-1.374,0.304-2.764,0.522-4.144,0.786
					c-1.383,0.254-2.763,0.522-4.156,0.7l-4.169,0.601l-4.179,0.494c-2.784,0.339-5.58,0.553-8.375,0.737
					c-5.587,0.407-11.188,0.498-16.776,0.432C109.278,263.742,103.69,263.484,98.152,262.749z"/>
			</g>
			
				<linearGradient id="SVGID_00000138540285428785244530000018205544834918292868_" gradientUnits="userSpaceOnUse" x1="250" y1="255.2148" x2="424.0656" y2="255.2148">
				<stop  offset="0" style="stop-color:#2BA66D"/>
				<stop  offset="0.1931" style="stop-color:#6BDF94"/>
				<stop  offset="0.8218" style="stop-color:#AEF484"/>
			</linearGradient>
			<path style="fill:url(#SVGID_00000138540285428785244530000018205544834918292868_);" d="M424.066,277.115
				c0,0-3.007-14.366-3.341-29.067c0,0-32.742,3.675-61.14-5.346c-28.398-9.021-76.174-22.385-109.584,19.712l14.032,14.7H424.066z"
				/>
			<g>
				<path style="fill:#FFFFFF;" d="M402.015,262.749c-5.539,0.735-11.126,0.993-16.714,1.118
					c-5.588,0.066-11.189-0.025-16.776-0.432c-2.794-0.184-5.591-0.399-8.375-0.737l-4.179-0.494l-4.169-0.601
					c-1.394-0.179-2.774-0.447-4.156-0.7c-1.381-0.265-2.77-0.482-4.144-0.786l-8.157-1.802c-2.657-0.652-5.355-1.071-8.04-1.568
					c-2.699-0.382-5.398-0.811-8.115-1.036c-5.424-0.575-10.888-0.719-16.339-0.49c-10.879,0.551-21.804,2.693-31.803,7.683
					c4.477-3.344,9.617-5.834,14.951-7.686c5.36-1.794,10.936-2.979,16.572-3.585c5.637-0.674,11.329-0.61,16.981-0.274
					c2.835,0.133,5.636,0.553,8.449,0.887c2.786,0.489,5.588,0.91,8.338,1.568l8.116,1.857c2.683,0.584,5.375,1.141,8.081,1.641
					c5.399,1.082,10.87,1.782,16.338,2.557c5.478,0.705,10.982,1.287,16.506,1.749C390.902,262.12,396.442,262.466,402.015,262.749z
					"/>
			</g>
			<g>
				<g>
					<g>
						
							<linearGradient id="SVGID_00000043452848867838569290000007159133031046974601_" gradientUnits="userSpaceOnUse" x1="68.4028" y1="284.1317" x2="431.5972" y2="284.1317">
							<stop  offset="0.005" style="stop-color:#1A242D"/>
							<stop  offset="0.5149" style="stop-color:#194A3D"/>
							<stop  offset="1" style="stop-color:#1A242D"/>
						</linearGradient>
						<path style="fill:url(#SVGID_00000043452848867838569290000007159133031046974601_);" d="M250.167,294.837
							c-8.507,0-15.633-6.026-17.335-14.032H72.092c-2.037,0-3.689-1.652-3.689-3.689c0-2.037,1.652-3.689,3.689-3.689h167.732
							v3.689c0,5.703,4.64,10.343,10.343,10.343c5.703,0,10.343-4.639,10.343-10.343v-3.689h167.398
							c2.037,0,3.689,1.652,3.689,3.689c0,2.037-1.652,3.689-3.689,3.689H267.502C265.8,288.811,258.673,294.837,250.167,294.837z"
							/>
					</g>
				</g>
			</g>
			
				<linearGradient id="SVGID_00000031196450536720647870000005408866362005908415_" gradientUnits="userSpaceOnUse" x1="180.3825" y1="192.0842" x2="217.8851" y2="217.937">
				<stop  offset="0.2277" style="stop-color:#AEF484"/>
				<stop  offset="1" style="stop-color:#6BDF94"/>
			</linearGradient>
			<path style="fill:url(#SVGID_00000031196450536720647870000005408866362005908415_);" d="M214.475,218.268
				c0,0,4.644-23.219-30.185-25.541C184.29,192.727,188.469,220.59,214.475,218.268z"/>
			
				<linearGradient id="SVGID_00000127742271868459679550000010726141358717770148_" gradientUnits="userSpaceOnUse" x1="66.2601" y1="192.0842" x2="103.7628" y2="217.937" gradientTransform="matrix(-1 0 0 1 394.6761 0)">
				<stop  offset="0.2277" style="stop-color:#AEF484"/>
				<stop  offset="1" style="stop-color:#6BDF94"/>
			</linearGradient>
			<path style="fill:url(#SVGID_00000127742271868459679550000010726141358717770148_);" d="M294.324,218.268
				c0,0-4.644-23.219,30.185-25.541C324.509,192.727,320.329,220.59,294.324,218.268z"/>
		</g>
		<g>
			<g>
				<text transform="matrix(1 0 0 1 112.5407 351.1653)" style="fill:#2E8254; font-family:'Cabin-Bold'; font-size:56.7831px;">ECO</text>
				<text transform="matrix(1 0 0 1 225.4041 351.1653)" style="fill:#303A33; font-family:'Cabin-Bold'; font-size:56.7831px;">BOOK</text>
			</g>
			<g>
				
					<text transform="matrix(1 0 0 1 166.2125 377.5017)" style="fill:#434F45; font-family:'Cabin-SemiBold'; font-size:17.7762px;">YOUR TAGLINE HERE</text>
			</g>
		</g>
	</g>
</g>
</svg>
